# xmcd
#
# Track frame offsets:
#	150
#	15077
#	21527
#	35927
#	48477
#	57627
#	64310
#	70460
#	88310
#	91685
#	102485
#	119586
#	129786
#	135036
#	144336
#	150711
#	154536
#	161521
#	174034
#	178497
#	183747
#	195147
#
# Disc length: 2693 seconds
#
# Revision: 0
# Processed by: cddbd v1.5.2PL0 Copyright (c) Steve Scherf et al.
# Submitted via: EasyCDDAExtractor 16.0.4.1
#
DISCID=2d0a8316
DTITLE=Žegar Živi
DYEAR=2008
DGENRE=Country
TTITLE0=U Žegaru Rodila Me Nana
TTITLE1=Cobanska Svirka
TTITLE2=Cetiri DJevojacke Pjesme
TTITLE3=Vucarska Pjesma
TTITLE4=Cuvam Ovce, Cuvala Me Nana
TTITLE5=Koze
TTITLE6=Žegar Živi
TTITLE7=Poziv Za Jandriju
TTITLE8=Svirka Na Diplama
TTITLE9=Kolo Igra
TTITLE10=Biracko Kolo
TTITLE11=Sinoc Vece Vecera Jedna Mlada Gospoja
TTITLE12=Zdrav, Jandre!
TTITLE13=Pije Vino Stotinu Ajduka - Grlo Moje, Sto Si Ogrbalo
TTITLE14=Zeman Dode Da Zapjevam Ode - Sve Sam Svoje Potrošio Novce
TTITLE15=Nemoj, Mala, Kazivati Ko Je
TTITLE16=Za Te Tvoje Crne Oci
TTITLE17=Pjesma O Jandri Cosi
TTITLE18=Sve Popišmo, A Ne Zapjevašmo
TTITLE19=Ošino Kolo
TTITLE20=Žegar Polje Goji Janje Moje
TTITLE21=Zvona Žegarske Crkve
EXTD=
EXTT0=
EXTT1=
EXTT2=
EXTT3=
EXTT4=
EXTT5=
EXTT6=
EXTT7=
EXTT8=
EXTT9=
EXTT10=
EXTT11=
EXTT12=
EXTT13=
EXTT14=
EXTT15=
EXTT16=
EXTT17=
EXTT18=
EXTT19=
EXTT20=
EXTT21=
PLAYORDER=
